<svg id="Logo" xmlns="http://www.w3.org/2000/svg" width="194.827" height="56.414" viewBox="0 0 194.827 56.414">
  <g id="Logo-2" data-name="Logo">
    <g id="Group_100" data-name="Group 100" transform="translate(71.616 10.537)">
      <path id="Path_8260" data-name="Path 8260" d="M265.439,74.706c-1.936,0-2.957.632-2.957,2.63,0,2.314,1.162,2.841,4.048,2.841h4.506V74.706Zm8.977-5.681V82.157c0,.316,0,.649-.669.895h-7.816c-4.647,0-6.795-.947-6.795-5.646,0-4.208,2.218-5.4,6.231-5.4l5.668-.035v-2.35c0-2.174-1.268-3.156-4.576-3.156h-5.281c-.423,0-.528-.105-.528-.527V64.08c0-.42.141-.492.493-.561h5.316c5.492,0,7.956,1.683,7.956,5.506" transform="translate(-210.927 -56.225)" fill="#fff"/>
      <path id="Path_8261" data-name="Path 8261" d="M192.79,71.889l-.07,10.767a.466.466,0,0,1-.528.526h-2.253a.466.466,0,0,1-.528-.526V72.31c0-5.365-1.056-5.576-4.365-5.576a24.539,24.539,0,0,0-4.119.316,15.329,15.329,0,0,1,.563,4.98l-.07,10.626c0,.42-.141.526-.458.526h-2.323a.466.466,0,0,1-.528-.526V72.1c0-5.155-1.056-5.33-4.365-5.33h-3.521V82.656a.466.466,0,0,1-.528.526h-2.323a.466.466,0,0,1-.529-.526V64.946c0-.421.176-.97.529-1.04,0,0,4.259-.083,5.879-.083a15.673,15.673,0,0,1,5.844,1.052,18.994,18.994,0,0,1,5.668-1.087c6.091,0,8.027.841,8.027,8.1" transform="translate(-166.844 -56.355)" fill="#fff"/>
      <path id="Path_8262" data-name="Path 8262" d="M229.485,74.706c-1.936,0-2.957.632-2.957,2.63,0,2.314,1.162,2.841,4.048,2.841h4.506V74.706Zm8.977-5.681V82.157c0,.316,0,.649-.669.895h-7.816c-4.647,0-6.795-.947-6.795-5.646,0-4.208,2.218-5.4,6.231-5.4l5.668-.035v-2.35c0-2.174-1.268-3.156-4.576-3.156h-5.281c-.422,0-.528-.105-.528-.527V64.08c0-.42.141-.492.493-.561h5.316c5.492,0,7.956,1.683,7.956,5.506" transform="translate(-193.754 -56.225)" fill="#fff"/>
      <rect id="Rectangle_24" data-name="Rectangle 24" width="10.104" height="2.49" rx="1.011" transform="translate(51.08 1.894)" fill="#fff"/>
      <path id="Path_8263" data-name="Path 8263" d="M300.3,50.107a.466.466,0,0,1,.528.526v6.8a44.6,44.6,0,0,1,4.471-.175c6.3,0,8.168.772,8.168,8.206V76.093a.466.466,0,0,1-.528.526h-2.323a.466.466,0,0,1-.529-.526V65.748c0-5.365-1.056-5.576-4.435-5.576h-4.824V76.093a.466.466,0,0,1-.528.526h-2.323a.466.466,0,0,1-.529-.526V50.633a.467.467,0,0,1,.529-.526Z" transform="translate(-229.225 -49.792)" fill="#fff"/>
      <path id="Path_8264" data-name="Path 8264" d="M346.513,63.939c.352.1.528.2.528.548v1.824a.454.454,0,0,1-.564.491h-3.063c-2.43,0-3.063.386-3.063,1.964V82.688a.466.466,0,0,1-.528.526h-2.288a.466.466,0,0,1-.528-.526V67.959c0-3.962,3.52-4.1,5.562-4.1.845,0,3.943.083,3.943.083" transform="translate(-248.121 -56.387)" fill="#fff"/>
      <path id="Path_8265" data-name="Path 8265" d="M364.306,57.146a.465.465,0,0,1,.528.526V75.8a.466.466,0,0,1-.528.526h-2.324a.466.466,0,0,1-.528-.526V57.672a.466.466,0,0,1,.528-.526Zm.915-5.612a2.078,2.078,0,1,1-2.077-2.033,1.831,1.831,0,0,1,2.077,2.033" transform="translate(-259.612 -49.501)" fill="#fff"/>
      <path id="Path_8266" data-name="Path 8266" d="M388.607,63.519a.519.519,0,0,1,.493.561V65.9a.466.466,0,0,1-.528.526h-6.548c-1.619,0-2.569.561-2.569,1.824v.455c0,.982.457,1.823,2.182,2.455l4.682,1.858c3.239,1.228,3.521,3.016,3.521,4.945v.386c0,3.927-2.359,4.7-7.111,4.7h-6.443a.5.5,0,0,1-.529-.561V80.667a.466.466,0,0,1,.529-.526H382.8c2.817,0,3.7-.316,3.7-1.824V77.9c0-1.017-.423-1.683-2.042-2.35l-5-1.893a4.933,4.933,0,0,1-3.38-5.015V67.9c0-3.858,3.38-4.384,7.147-4.384Z" transform="translate(-266.629 -56.225)" fill="#fff"/>
    </g>
    <g id="Group_101" data-name="Group 101">
      <path id="Path_8267" data-name="Path 8267" d="M86.049,56.627,58.9,29.579a1.209,1.209,0,0,0-1.656,0L30.087,56.627a1.162,1.162,0,0,0,0,1.649L57.24,85.323a1.174,1.174,0,0,0,1.656,0L86.049,58.275A1.163,1.163,0,0,0,86.049,56.627ZM39.131,50.916v13.07l-6.56-6.535Zm12.677,7.7v18L48.179,73V58.617Zm6.261,24.232-3.919-3.9V58.617h1.735V56.285H43.7v2.332h2.138v12.05l-4.366-4.349V48.584l16.6-16.531L74.826,48.746V66.157l-4.348,4.331V58.617h2.2V56.285H60.491v2.332h1.667V78.776ZM68.137,58.617v14.2L64.5,76.444V58.617Zm9.031,5.207V51.078l6.4,6.373Z" transform="translate(-29.744 -29.251)" fill="#fff"/>
      <path id="Path_8268" data-name="Path 8268" d="M82.837,67.032h2.341a12.329,12.329,0,0,0-24.658,0h2.341a9.988,9.988,0,0,1,19.976,0Z" transform="translate(-44.444 -41.483)" fill="#fff"/>
      <path id="Path_8269" data-name="Path 8269" d="M82.325,72.522h2.341a6.35,6.35,0,0,0-12.7,0h2.341a4.008,4.008,0,0,1,8.017,0Z" transform="translate(-49.911 -46.973)" fill="#fff"/>
    </g>
  </g>
</svg>
