<svg id="twitter" xmlns="http://www.w3.org/2000/svg" width="26.99" height="21.929" viewBox="0 0 26.99 21.929">
  <g id="Group_4" data-name="Group 4" transform="translate(0 0)">
    <path id="Path_4" data-name="Path 4" d="M26.989,50.6a11.536,11.536,0,0,1-3.188.874,5.5,5.5,0,0,0,2.434-3.058,11.057,11.057,0,0,1-3.509,1.339,5.533,5.533,0,0,0-9.571,3.784,5.7,5.7,0,0,0,.128,1.262,15.661,15.661,0,0,1-11.4-5.788,5.535,5.535,0,0,0,1.7,7.4,5.464,5.464,0,0,1-2.5-.681v.061A5.559,5.559,0,0,0,5.513,61.22a5.522,5.522,0,0,1-1.451.182,4.892,4.892,0,0,1-1.048-.094,5.586,5.586,0,0,0,5.17,3.854,11.118,11.118,0,0,1-6.86,2.36A10.361,10.361,0,0,1,0,67.446a15.577,15.577,0,0,0,8.488,2.483A15.64,15.64,0,0,0,24.237,54.184c0-.245-.008-.481-.02-.715A11.038,11.038,0,0,0,26.989,50.6Z" transform="translate(0 -48)" fill="#fff"/>
  </g>
</svg>
